<svg width="128" height="128" viewBox="0 0 128 128" fill="none" xmlns="http://www.w3.org/2000/svg">
<rect width="128" height="128" rx="16" fill="white"/>
<path fill-rule="evenodd" clip-rule="evenodd" d="M67.4006 27.3508C68.1662 27.1259 68.9299 27.0844 69.6437 27.3186C70.2729 27.525 70.823 27.9325 71.2824 28.5373L71.4738 28.8088L71.5031 28.8537L71.5226 28.9035C71.6729 29.2971 71.621 29.6979 71.4777 30.0559C71.3365 30.4085 71.0953 30.7524 70.8137 31.0764C70.2499 31.7246 69.4374 32.3876 68.6232 32.9963C67.8173 33.5987 66.9381 34.1992 66.298 34.6653C65.9678 34.9057 65.6949 35.1145 65.4963 35.2883C65.3971 35.3751 65.3237 35.4463 65.2746 35.5022C65.2207 35.5636 65.2187 35.5807 65.2267 35.5598L65.2131 35.5969L65.1935 35.6301L61.926 41.3283V43.466L62.0266 43.6184C62.009 43.457 62.0002 43.2932 62.0002 43.1272C62.0002 40.6419 64.0149 38.6272 66.5002 38.6272C68.9855 38.6272 71.0002 40.6419 71.0002 43.1272C71.0002 44.7724 70.1168 46.2105 68.799 46.9953H73.7277L73.8039 47.0197C74.4711 47.238 75.6301 48.1194 75.6301 49.9182C75.6301 51.4637 75.8766 63.47 76.0002 69.2893V69.3C76.0001 69.917 75.8811 70.8772 75.5217 71.7961C75.1744 72.6835 74.5743 73.5964 73.5744 74.0725L80.0793 96.2356L80.0949 96.2883L80.0988 96.342C80.1645 97.2988 80.057 98.7115 79.424 99.7004C79.0957 100.213 78.6114 100.631 77.9338 100.78C77.2679 100.927 76.4898 100.797 75.5959 100.375C75.0918 100.137 74.5821 99.6966 74.0803 99.1447C73.5725 98.5862 73.0432 97.8806 72.5051 97.0725C71.4284 95.4557 70.2902 93.3909 69.1838 91.1828C67.2226 87.2689 65.3427 82.8669 64.0578 79.6233C62.773 82.8669 60.8929 87.269 58.9318 91.1828C57.8254 93.3908 56.6872 95.4557 55.6105 97.0725C55.0724 97.8805 54.5431 98.5862 54.0353 99.1447C53.5335 99.6966 53.0238 100.137 52.5197 100.375C51.6259 100.797 50.8476 100.927 50.1818 100.78C49.5043 100.631 49.0199 100.213 48.6916 99.7004C48.0586 98.7115 47.9511 97.2988 48.0168 96.342L48.0207 96.2883L48.0363 96.2356L54.8596 72.9865L54.965 72.6272H55.0002V41.5744L55.0441 41.4768C56.5496 38.112 59.5843 33.5521 62.7062 30.5051C64.2603 28.9884 65.8878 27.7954 67.4006 27.3508ZM49.0129 96.4572C48.9596 97.3329 49.0826 98.4555 49.5344 99.1613C49.7524 99.5018 50.0317 99.7233 50.3967 99.8039C50.7738 99.887 51.3196 99.8363 52.093 99.4709C52.4225 99.3152 52.8271 98.9874 53.2951 98.4729C53.7574 97.9644 54.2564 97.3019 54.7785 96.5178C55.8227 94.9498 56.9402 92.926 58.0383 90.7346C60.2337 86.3531 62.3313 81.3442 63.591 78.0705L64.0578 78.2502L64.5246 78.0705C65.7843 81.3442 67.8819 86.3531 70.0773 90.7346C71.1754 92.9261 72.2929 94.9497 73.3371 96.5178C73.8593 97.3019 74.3582 97.9644 74.8205 98.4729C75.2885 98.9875 75.6931 99.3152 76.0226 99.4709C76.7961 99.8363 77.3418 99.887 77.7189 99.8039C78.084 99.7234 78.3632 99.5018 78.5812 99.1613C79.0331 98.4555 79.156 97.3329 79.1027 96.4572L72.4025 73.6272H55.7131L49.0129 96.4572ZM69.3322 28.2688C68.8598 28.1138 68.3106 28.1254 67.6828 28.3098C66.4087 28.6841 64.9242 29.7377 63.4045 31.2209C60.4078 34.1457 57.4722 38.5419 56.0002 41.7903V72.6272H71.9992L71.5002 55.6418L72.5002 55.6125L72.9992 72.6272H73.1506L73.256 72.9865L73.2873 73.0959C73.8918 72.7517 74.3128 72.1404 74.59 71.4319C74.8949 70.6526 74.9987 69.8252 75.0002 69.3108C74.8768 63.5017 74.6301 51.4777 74.6301 49.9182C74.6301 48.6891 73.9011 48.1414 73.55 47.9953H63.7512L63.6027 47.7736L61.0109 43.8967L60.926 43.7707V41.0627L60.9924 40.9475L64.3215 35.1389C64.3767 35.0237 64.4532 34.9223 64.5236 34.842C64.6123 34.7411 64.7204 34.6385 64.8371 34.5363C65.071 34.3317 65.3742 34.1006 65.7092 33.8567C66.3999 33.3538 67.2104 32.8032 68.0246 32.1945C68.8303 31.5922 69.5693 30.9829 70.0588 30.4201C70.3034 30.1388 70.4659 29.8912 70.549 29.6838C70.6185 29.5102 70.6208 29.39 70.5988 29.302C70.2144 28.736 69.7849 28.4173 69.3322 28.2688ZM66.5002 39.6272C64.5672 39.6272 63.0002 41.1942 63.0002 43.1272C63.0002 45.0602 64.5672 46.6272 66.5002 46.6272C68.4332 46.6272 70.0002 45.0602 70.0002 43.1272C70.0002 41.1942 68.4332 39.6272 66.5002 39.6272Z" fill="black"/>
</svg>
