<svg width="128" height="128" viewBox="0 0 128 128" fill="none" xmlns="http://www.w3.org/2000/svg">
<rect width="128" height="128" rx="16" fill="white"/>
<path fill-rule="evenodd" clip-rule="evenodd" d="M60.715 27.3508C59.9494 27.1259 59.1857 27.0844 58.4719 27.3186C57.8427 27.525 57.2926 27.9325 56.8332 28.5373L56.6418 28.8088L56.6125 28.8537L56.593 28.9035C56.4427 29.2971 56.4946 29.6979 56.6379 30.0559C56.7791 30.4085 57.0203 30.7524 57.3019 31.0764C57.8657 31.7246 58.6782 32.3876 59.4924 32.9963C60.2983 33.5987 61.1775 34.1992 61.8176 34.6653C62.1478 34.9057 62.4207 35.1145 62.6193 35.2883C62.7185 35.3751 62.7919 35.4463 62.841 35.5022C62.8949 35.5636 62.8969 35.5807 62.8889 35.5598L62.9025 35.5969L62.9221 35.6301L66.1896 41.3283V43.466L66.0891 43.6184C66.1066 43.457 66.1154 43.2932 66.1154 43.1272C66.1154 40.6419 64.1007 38.6272 61.6154 38.6272C59.1301 38.6272 57.1154 40.6419 57.1154 43.1272C57.1154 44.7724 57.9988 46.2105 59.3166 46.9953H54.3879L54.3117 47.0197C53.6445 47.238 52.4855 48.1194 52.4855 49.9182C52.4855 51.4637 52.239 63.47 52.1154 69.2893V69.3C52.1155 69.917 52.2345 70.8772 52.5939 71.7961C52.9412 72.6835 53.5413 73.5964 54.5412 74.0725L48.0363 96.2356L48.0207 96.2883L48.0168 96.342C47.9511 97.2988 48.0586 98.7115 48.6916 99.7004C49.0199 100.213 49.5042 100.631 50.1818 100.78C50.8477 100.927 51.6258 100.797 52.5197 100.375C53.0238 100.137 53.5335 99.6966 54.0353 99.1447C54.5431 98.5862 55.0724 97.8806 55.6105 97.0725C56.6872 95.4557 57.8254 93.3909 58.9318 91.1828C60.893 87.2689 62.7729 82.8669 64.0578 79.6233C65.3427 82.8669 67.2227 87.269 69.1838 91.1828C70.2902 93.3908 71.4284 95.4557 72.5051 97.0725C73.0432 97.8805 73.5725 98.5862 74.0803 99.1447C74.5821 99.6966 75.0918 100.137 75.5959 100.375C76.4897 100.797 77.268 100.927 77.9338 100.78C78.6113 100.631 79.0957 100.213 79.424 99.7004C80.057 98.7115 80.1645 97.2988 80.0988 96.342L80.0949 96.2883L80.0793 96.2356L73.256 72.9865L73.1506 72.6272H73.1154V41.5744L73.0715 41.4768C71.566 38.112 68.5313 33.5521 65.4094 30.5051C63.8553 28.9884 62.2278 27.7954 60.715 27.3508ZM79.1027 96.4572C79.156 97.3329 79.033 98.4555 78.5812 99.1613C78.3632 99.5018 78.0839 99.7233 77.7189 99.8039C77.3418 99.887 76.796 99.8363 76.0226 99.4709C75.6931 99.3152 75.2885 98.9874 74.8205 98.4729C74.3582 97.9644 73.8592 97.3019 73.3371 96.5178C72.2929 94.9498 71.1754 92.926 70.0773 90.7346C67.8819 86.3531 65.7843 81.3442 64.5246 78.0705L64.0578 78.2502L63.591 78.0705C62.3313 81.3442 60.2337 86.3531 58.0383 90.7346C56.9402 92.9261 55.8227 94.9497 54.7785 96.5178C54.2563 97.3019 53.7574 97.9644 53.2951 98.4729C52.8271 98.9875 52.4225 99.3152 52.093 99.4709C51.3195 99.8363 50.7738 99.887 50.3967 99.8039C50.0316 99.7234 49.7524 99.5018 49.5344 99.1613C49.0826 98.4555 48.9596 97.3329 49.0129 96.4572L55.7131 73.6272H72.4025L79.1027 96.4572ZM58.7834 28.2688C59.2558 28.1138 59.805 28.1254 60.4328 28.3098C61.7069 28.6841 63.1914 29.7377 64.7111 31.2209C67.7078 34.1457 70.6434 38.5419 72.1154 41.7903V72.6272H56.1164L56.6154 55.6418L55.6154 55.6125L55.1164 72.6272H54.965L54.8596 72.9865L54.8283 73.0959C54.2238 72.7517 53.8028 72.1404 53.5256 71.4319C53.2207 70.6526 53.1169 69.8252 53.1154 69.3108C53.2388 63.5017 53.4855 51.4777 53.4855 49.9182C53.4855 48.6891 54.2145 48.1414 54.5656 47.9953H64.3644L64.5129 47.7736L67.1047 43.8967L67.1896 43.7707V41.0627L67.1232 40.9475L63.7941 35.1389C63.7389 35.0237 63.6624 34.9223 63.592 34.842C63.5033 34.7411 63.3952 34.6385 63.2785 34.5363C63.0446 34.3317 62.7414 34.1006 62.4064 33.8567C61.7157 33.3538 60.9052 32.8032 60.091 32.1945C59.2853 31.5922 58.5463 30.9829 58.0568 30.4201C57.8122 30.1388 57.6497 29.8912 57.5666 29.6838C57.4972 29.5102 57.4948 29.39 57.5168 29.302C57.9012 28.736 58.3307 28.4173 58.7834 28.2688ZM61.6154 39.6272C63.5484 39.6272 65.1154 41.1942 65.1154 43.1272C65.1154 45.0602 63.5484 46.6272 61.6154 46.6272C59.6824 46.6272 58.1154 45.0602 58.1154 43.1272C58.1154 41.1942 59.6824 39.6272 61.6154 39.6272Z" fill="black"/>
</svg>
